<?xml version="1.0" encoding="iso-8859-1"?>
<!-- Generator: Adobe Illustrator 19.0.0, SVG Export Plug-In . SVG Version: 6.00 Build 0)  -->
<svg version="1.1" id="Capa_1" xmlns="http://www.w3.org/2000/svg" xmlns:xlink="http://www.w3.org/1999/xlink" x="0px" y="0px"
	 viewBox="0 0 428.439 428.439" style="enable-background:new 0 0 428.439 428.439;" xml:space="preserve">
<g>
	<g>
		<path d="M428.423,361.027V123.313c0.595-21.344-16.225-39.129-37.569-39.724c-0.886-0.025-1.774-0.019-2.66,0.017h-85.159V67.411
			c0.577-22.21-16.96-40.683-39.17-41.26c-0.353-0.009-0.706-0.014-1.058-0.014h-97.176c-22.218-0.008-40.235,17.997-40.242,40.215
			c0,0.353,0.004,0.706,0.014,1.058v16.196H40.244C18.909,82.733,0.906,99.319,0.032,120.653c-0.036,0.886-0.042,1.773-0.017,2.66
			v237.714c-0.577,22.21,16.96,40.683,39.17,41.26c0.353,0.009,0.706,0.014,1.058,0.014h347.951
			c22.218,0.008,40.235-17.997,40.242-40.215C428.437,361.733,428.432,361.38,428.423,361.027z M164.558,47.064
			c0.357-0.019,0.715-0.029,1.073-0.028h97.176c10.676-0.016,19.343,8.626,19.359,19.302c0.001,0.358-0.009,0.716-0.028,1.073
			v16.196H146.301V67.411C145.724,56.751,153.898,47.641,164.558,47.064z M389.268,381.375c-0.357,0.019-0.715,0.029-1.073,0.028
			H40.244c-10.676,0.016-19.343-8.626-19.359-19.302c-0.001-0.358,0.009-0.716,0.028-1.073v-68.441
			c5.73,3.739,12.497,5.568,19.331,5.225h106.057v30.302c0.967,6.298,6.181,11.078,12.539,11.494h110.759
			c6.358-0.416,11.572-5.196,12.539-11.494v-30.302h106.057c6.834,0.344,13.601-1.485,19.331-5.225v68.441
			C408.102,371.688,399.928,380.798,389.268,381.375z M167.199,318.709v-52.245h94.041v52.245H167.199z M389.268,276.885
			c-0.357,0.019-0.715,0.029-1.073,0.028H282.137v-22.465c0-5.747-6.792-8.882-12.539-8.882H158.84
			c-5.747,0-12.539,3.135-12.539,8.882v22.465H40.244c-10.676,0.016-19.343-8.626-19.359-19.302
			c-0.001-0.358,0.009-0.716,0.028-1.073V123.313c-0.617-9.791,6.82-18.228,16.611-18.845c0.906-0.057,1.816-0.045,2.72,0.037
			h347.951c9.77-0.885,18.408,6.318,19.293,16.088c0.082,0.904,0.094,1.814,0.037,2.72v133.224
			C408.102,267.198,399.928,276.308,389.268,276.885z"/>
	</g>
</g>
<g>
</g>
<g>
</g>
<g>
</g>
<g>
</g>
<g>
</g>
<g>
</g>
<g>
</g>
<g>
</g>
<g>
</g>
<g>
</g>
<g>
</g>
<g>
</g>
<g>
</g>
<g>
</g>
<g>
</g>
</svg>
